<svg id="Layer_1" enable-background="new 0 0 256 256" height="512" viewBox="0 0 256 256" width="512" xmlns="http://www.w3.org/2000/svg"><g><path d="m41.575 203.088c-6.785 0-12.306-5.613-12.306-12.512v-113.338c0-6.899 5.521-12.512 12.306-12.512h172.851c6.785 0 12.306 5.613 12.306 12.512v113.338c0 6.899-5.521 12.512-12.306 12.512z" fill="#63bce7"/><path d="m219.158 77.26v113.293c0 2.67-2.129 4.835-4.755 4.835h-172.806c-2.626 0-4.755-2.165-4.755-4.835v-113.293c0-2.67 2.129-4.835 4.755-4.835h172.807c2.625 0 4.754 2.165 4.754 4.835z" fill="#9e9e9e"/><g><path d="m47.357 190.553v-113.293c0-2.67 2.129-4.835 4.755-4.835h-10.515c-2.626 0-4.755 2.165-4.755 4.835v113.293c0 2.67 2.129 4.835 4.755 4.835h10.515c-2.626 0-4.755-2.165-4.755-4.835z" fill="#707070"/></g><g><path d="m208.643 190.553v-113.293c0-2.67-2.129-4.835-4.755-4.835h10.515c2.626 0 4.755 2.165 4.755 4.835v113.293c0 2.67-2.129 4.835-4.755 4.835h-10.515c2.626 0 4.755-2.165 4.755-4.835z" fill="#cecece"/></g><path d="m133.271 134.154h-10.542c-33.818 0-61.234 27.415-61.234 61.234h133.01c0-33.819-27.415-61.234-61.234-61.234z" fill="#f46275"/><path d="m133.612 150.608h-11.224l-3.772 44.78h18.768z" fill="#f8af23"/><path d="m128 203.088h-107.47l2.749 6.431c2.477 5.795 8.101 9.544 14.316 9.544h90.405 90.405c6.215 0 11.838-3.749 14.316-9.544l2.749-6.431z" fill="#f8af23"/><g><path d="m33.794 209.519-2.749-6.431h-10.515l2.749 6.431c2.478 5.795 8.101 9.544 14.316 9.544h10.515c-6.215 0-11.838-3.749-14.316-9.544z" fill="#f87023"/></g><g><path d="m222.206 209.519 2.749-6.431h10.515l-2.749 6.431c-2.478 5.795-8.101 9.544-14.316 9.544h-10.515c6.215 0 11.838-3.749 14.316-9.544z" fill="#f8d323"/></g><path d="m86.971 203.088 3.801 4.934c1.485 1.928 3.76 3.054 6.169 3.054h62.118c2.409 0 4.684-1.126 6.169-3.054l3.801-4.934z" fill="#f46275"/><g><path d="m128 150.323c-6.71 0-12.2-5.49-12.2-12.2v-13.526c0-6.71 5.49-12.2 12.2-12.2 6.71 0 12.2 5.49 12.2 12.2v13.526c0 6.71-5.49 12.2-12.2 12.2z" fill="#f8af23"/><path d="m128 140.046-11.162 5.188 7.904 8.896c1.734 1.951 4.782 1.951 6.516 0l7.904-8.896z" fill="#9e9e9e"/><g fill="#63bce7"><path d="m115.8 129.754 12.2 10.292-13.808 9.916-5.204-14.263z"/><path d="m140.2 129.754-12.2 10.292 13.808 9.916 5.201-14.262z"/></g></g><g fill="#f8af23"><circle cx="95.123" cy="97.357" r="8.354"/><circle cx="160.877" cy="97.357" r="8.354"/><path d="m127.995 127.701c-18.148 0-32.995-14.848-32.995-32.995v-13.054c0-18.147 14.848-32.995 32.995-32.995 18.147 0 32.995 14.848 32.995 32.995v13.054c-.001 18.147-14.848 32.995-32.995 32.995z"/></g><g fill="#3f3679"><circle cx="114.983" cy="99.685" r="3.333"/><circle cx="141.017" cy="99.685" r="3.333"/></g><path d="m106.741 82.023v-2.082h-11.696c-.03.567-.045 1.137-.045 1.711v11.949h1.081c1.928 0 3.809-.673 5.249-1.955 2.078-1.849 4.723-5.03 5.411-9.623z" fill="#9e9e9e"/><path d="m149.249 82.023c.688 4.593 3.333 7.774 5.41 9.623 1.44 1.282 3.321 1.955 5.249 1.955h1.081v-11.949c0-.479-.011-.956-.031-1.43z" fill="#9e9e9e"/><path d="m162.884 79.926-27.518 4.236c-4.882.751-9.851.751-14.733 0l-27.518-4.236c-1.553-.239-2.699-1.575-2.699-3.147v-29.162h75.167v29.162c0 1.572-1.146 2.908-2.699 3.147z" fill="#f46275"/><path d="m128 25.182-48.959 22.434 48.959 22.436 48.959-22.436z" fill="#f46275"/><g fill="#3f3679"><path d="m71.461 209.575h-9.344c-.829 0-1.5.672-1.5 1.5s.671 1.5 1.5 1.5h9.344c.829 0 1.5-.672 1.5-1.5s-.671-1.5-1.5-1.5z"/><path d="m193.883 209.575h-9.344c-.829 0-1.5.672-1.5 1.5s.671 1.5 1.5 1.5h9.344c.829 0 1.5-.672 1.5-1.5s-.672-1.5-1.5-1.5z"/><path d="m27.571 229.317h-18.196c-.829 0-1.5.672-1.5 1.5s.671 1.5 1.5 1.5h18.195c.829 0 1.5-.672 1.5-1.5s-.671-1.5-1.499-1.5z"/><path d="m246.625 229.317h-18.195c-.829 0-1.5.672-1.5 1.5s.671 1.5 1.5 1.5h18.195c.829 0 1.5-.672 1.5-1.5s-.672-1.5-1.5-1.5z"/><path d="m213.899 229.317h-171.798c-.829 0-1.5.672-1.5 1.5s.671 1.5 1.5 1.5h171.798c.829 0 1.5-.672 1.5-1.5s-.671-1.5-1.5-1.5z"/><path d="m248.125 219.063c0-.828-.671-1.5-1.5-1.5h-18.618c2.632-1.812 4.773-4.364 6.094-7.454l2.75-6.432c.198-.464.15-.995-.127-1.416-.278-.421-.748-.674-1.252-.674h-12.536c3.219-2.568 5.298-6.544 5.298-11.013v-113.337c0-7.727-6.193-14.012-13.806-14.012h-47.342v-9.434l10.5-4.812c.533-.244.875-.776.875-1.363s-.342-1.119-.875-1.363l-48.958-22.434c-.397-.182-.853-.182-1.25 0l-48.961 22.434c-.533.244-.875.776-.875 1.363v15.609h-35.967c-7.613 0-13.806 6.285-13.806 14.012v113.338c0 4.468 2.079 8.445 5.298 11.013h-12.537c-.504 0-.974.253-1.252.674-.277.421-.325.952-.127 1.416l2.75 6.432c1.321 3.09 3.462 5.642 6.094 7.454h-18.62c-.829 0-1.5.672-1.5 1.5s.671 1.5 1.5 1.5h28.219 180.811 28.219c.829-.001 1.501-.672 1.501-1.501zm-185.111-25.175c.332-13.097 5-25.834 13.23-36.018 8.118-10.044 19.368-17.235 31.8-20.384l4.739 12.99c.161.441.519.781.967.92.145.045.294.066.442.066.31 0 .617-.097.875-.281l3.082-2.213 2.643 2.975c-.016.07-.034.14-.04.213l-3.515 41.732zm-21.417 0c-1.795 0-3.255-1.496-3.255-3.335v-113.293c0-1.839 1.46-3.335 3.255-3.335h35.945v44.17c0 .828.671 1.5 1.5 1.5s1.5-.672 1.5-1.5v-44.17h8.375v2.854c0 2.328 1.67 4.274 3.972 4.629l.614.094c0 .05-.002.1-.002.15v5.987c-4.691.777-8.231 4.858-8.231 9.717 0 5.434 4.42 9.854 9.854 9.854.239 0 .475-.032.714-.05 3.342 8.598 10.03 15.534 18.463 19.197v2.714l-6.035 5.267c-13.437 3.174-25.622 10.841-34.354 21.645-8.66 10.716-13.551 24.124-13.884 37.903h-18.431zm47.32-122.963h-8.375v-4.699h8.375zm73.572 23.781v-1.104-2.902c3.043.727 5.242 3.439 5.242 6.657 0 3.687-2.929 6.696-6.581 6.841.866-3.019 1.339-6.2 1.339-9.492zm-3-12.74v10.123c-1.444-.089-2.792-.636-3.833-1.562-1.65-1.469-3.702-3.888-4.604-7.262zm-11.409 1.756c1.045 4.247 3.565 7.25 5.581 9.044 1.587 1.413 3.641 2.221 5.819 2.316-.203 17.193-14.245 31.118-31.485 31.118s-31.282-13.925-31.485-31.117c2.178-.095 4.231-.903 5.818-2.316 2.015-1.794 4.537-4.797 5.582-9.046l12.496 1.924c2.52.388 5.057.581 7.594.581s5.075-.193 7.594-.581zm-17.944 69.411c-1.099 1.236-3.173 1.238-4.273 0l-5.264-5.925 7.401-5.315 7.401 5.315zm-14.32-21.403 9.745 8.221-10.637 7.639-4.173-11.438zm14.623 8.221 9.744-8.221 5.064 4.423-4.171 11.437zm8.261-10.894-10.7 9.027-10.7-9.027v-1.562c3.369 1.102 6.962 1.705 10.695 1.705 3.737 0 7.333-.605 10.706-1.709v1.566zm-45.2-35.455v1.104c0 3.292.473 6.473 1.338 9.49-3.647-.151-6.57-3.157-6.57-6.84 0-3.207 2.218-5.926 5.231-6.657v2.903zm6.833-3.076c-1.041.927-2.389 1.474-3.833 1.563v-10.125l8.437 1.299c-.902 3.375-2.956 5.795-4.604 7.263zm23.189 64.488.098.111c1.111 1.25 2.707 1.968 4.38 1.968 1.672-.001 3.268-.718 4.379-1.968l.098-.111 3.274 38.874h-15.504zm15.241 38.874-3.535-41.969 2.623-2.952 3.082 2.213c.258.185.565.281.875.281.148 0 .297-.021.442-.066.449-.139.807-.479.967-.92l4.738-12.991c26.106 6.579 44.377 29.464 45.032 56.403h-54.224zm57.21 0c-.665-28.654-20.289-52.962-48.246-59.552l-6.027-5.263v-2.719c8.421-3.661 15.101-10.586 18.444-19.171.245.018.489.028.733.028 5.434 0 9.854-4.421 9.854-9.854 0-4.869-3.504-8.937-8.242-9.712v-5.992c0-.057-.001-.099-.001-.148l.624-.096c2.301-.354 3.971-2.301 3.971-4.629v-2.854h47.32c1.795 0 3.255 1.496 3.255 3.335v113.293c0 1.839-1.46 3.335-3.255 3.335h-18.43zm-31.89-117.109c0 .837-.601 1.536-1.428 1.664l-27.518 4.236c-4.737.728-9.54.729-14.276 0l-27.517-4.236c-.828-.128-1.428-.827-1.428-1.664v-21.613l35.458 16.249c.198.091.412.137.625.137s.427-.046.625-.137l35.458-16.249v21.613zm-36.083-49.946 45.358 20.783-45.358 20.785-45.358-20.785zm-47.458 23.12 8.375 3.838v9.434h-8.375zm-49.773 140.622v-113.338c0-6.072 4.848-11.012 10.806-11.012h35.967v4.699h-35.945c-3.449 0-6.255 2.842-6.255 6.335v113.293c0 3.493 2.806 6.335 6.255 6.335h19.898 57.121 18.768 57.121 19.898c3.449 0 6.255-2.842 6.255-6.335v-113.292c0-3.493-2.806-6.335-6.255-6.335h-47.32v-4.699h47.342c5.958 0 10.806 4.939 10.806 11.012v113.338c0 6.072-4.848 11.013-10.806 11.013h-45.396-82.058-45.396c-5.959-.001-10.806-4.942-10.806-11.014zm135.21 14.013-1.939 2.519c-1.209 1.568-3.025 2.469-4.981 2.469h-62.118c-1.956 0-3.771-.9-4.98-2.469l-1.94-2.519zm-128.384 12.975c-4.174 0-8.048-1.874-10.684-4.988h25.958c.829 0 1.5-.672 1.5-1.5s-.671-1.5-1.5-1.5h-27.906c-.104-.213-.21-.425-.304-.646l-1.856-4.342h18.772 44.659l3.351 4.35c1.781 2.312 4.463 3.638 7.357 3.638h62.118c2.894 0 5.576-1.326 7.357-3.639l3.35-4.349h44.659 18.772l-1.856 4.342c-.094.22-.2.432-.304.646h-27.906c-.829 0-1.5.672-1.5 1.5s.671 1.5 1.5 1.5h25.958c-2.636 3.114-6.51 4.988-10.684 4.988z"/><path d="m128 110.669c.829 0 1.5-.672 1.5-1.5v-7.583c0-.828-.671-1.5-1.5-1.5s-1.5.672-1.5 1.5v7.583c0 .828.671 1.5 1.5 1.5z"/><path d="m123.733 91.752c0-.828-.671-1.5-1.5-1.5h-14.5c-.829 0-1.5.672-1.5 1.5s.671 1.5 1.5 1.5h14.5c.829 0 1.5-.672 1.5-1.5z"/><path d="m132.267 91.752c0 .828.671 1.5 1.5 1.5h14.5c.829 0 1.5-.672 1.5-1.5s-.671-1.5-1.5-1.5h-14.5c-.829 0-1.5.672-1.5 1.5z"/><path d="m133.343 114.294c-4.856 4.917-10.553.417-10.806.212-.641-.524-1.583-.429-2.108.211-.525.641-.432 1.586.208 2.111 1.574 1.291 4.417 2.765 7.581 2.765 2.374 0 4.928-.831 7.259-3.191.582-.589.576-1.539-.013-2.121-.589-.584-1.538-.578-2.121.013z"/></g><path d="m85.81 118.094c0 3.738-3.03 14.701-6.768 14.701s-6.768-10.963-6.768-14.701 3.03-6.768 6.768-6.768 6.768 3.03 6.768 6.768z" fill="#3f3679"/></g></svg>